<?xml version="1.0" encoding="UTF-8" standalone="no"?>
<svg
   xmlns:dc="http://purl.org/dc/elements/1.1/"
   xmlns:cc="http://creativecommons.org/ns#"
   xmlns:rdf="http://www.w3.org/1999/02/22-rdf-syntax-ns#"
   xmlns:svg="http://www.w3.org/2000/svg"
   xmlns="http://www.w3.org/2000/svg"
   xmlns:sodipodi="http://sodipodi.sourceforge.net/DTD/sodipodi-0.dtd"
   xmlns:inkscape="http://www.inkscape.org/namespaces/inkscape"
   version="1.1"
   x="0px"
   y="0px"
   viewBox="0 0 508 508"
   enable-background="new 0 0 512 512"
   xml:space="preserve"
   id="svg3729"
   sodipodi:docname="atom2.svg"
   width="508"
   height="508"
   inkscape:export-filename="/home/matt/code/rt-graph/img/atom2.png"
   inkscape:export-xdpi="226.77"
   inkscape:export-ydpi="226.77"
   inkscape:version="0.92.0 r"><metadata
     id="metadata3735"><rdf:RDF><cc:Work
         rdf:about=""><dc:format>image/svg+xml</dc:format><dc:type
           rdf:resource="http://purl.org/dc/dcmitype/StillImage" /><dc:title></dc:title></cc:Work></rdf:RDF></metadata><defs
     id="defs3733" /><sodipodi:namedview
     pagecolor="#ffffff"
     bordercolor="#666666"
     borderopacity="1"
     objecttolerance="10"
     gridtolerance="10"
     guidetolerance="10"
     inkscape:pageopacity="0"
     inkscape:pageshadow="2"
     inkscape:window-width="1920"
     inkscape:window-height="1042"
     id="namedview3731"
     showgrid="false"
     inkscape:zoom="1.353125"
     inkscape:cx="254"
     inkscape:cy="190"
     inkscape:window-x="0"
     inkscape:window-y="18"
     inkscape:window-maximized="0"
     inkscape:current-layer="svg3729" /><path
     d="m 452.1,201 c 30.8,0 55.9,-25.1 55.9,-55.9 0,-30.8 -25.1,-55.9 -55.9,-55.9 -30.8,0 -55.9,25.1 -55.9,55.9 0,4.9 0.7,9.6 1.9,14.2 l -121.7,68.4 c -10.3,-10.8 -24.9,-17.6 -41,-17.6 -8.8,0 -17,2 -24.4,5.6 L 134.6,124.2 C 145.4,111.1 151.9,94.3 151.9,76 151.9,34.1 117.8,0 75.9,0 34.1,0 0,34.1 0,76 c 0,41.9 34.1,76 76,76 13.4,0 26,-3.5 37,-9.7 l 76.4,91.6 c -6.7,9.3 -10.7,20.7 -10.7,33.1 0,14.9 5.8,28.4 15.2,38.6 L 150,373.8 c -4.7,-1.5 -9.8,-2.4 -15,-2.4 -26.9,0 -48.8,21.9 -48.8,48.8 0,26.9 21.9,48.8 48.8,48.8 26.9,0 48.8,-21.9 48.8,-48.8 0,-11.4 -4,-21.9 -10.6,-30.2 l 44.4,-69.1 c 5.6,1.9 11.6,2.9 17.9,2.9 10.2,0 19.7,-2.7 28,-7.5 l 86.3,89.3 c -7,10.5 -11.1,23 -11.1,36.5 0,36.4 29.6,65.9 65.9,65.9 36.3,0 65.9,-29.6 65.9,-65.9 0,-36.3 -29.6,-65.9 -65.9,-65.9 -12.7,0 -24.5,3.7 -34.5,9.9 l -86.3,-89.4 c 5.3,-8.7 8.5,-18.8 8.5,-29.7 0,-5.1 -0.7,-10 -2,-14.6 L 411.9,184 c 10.1,10.4 24.4,17 40.2,17 z M 28.2,76 c 0,-26.3 21.4,-47.7 47.7,-47.7 26.3,0 47.7,21.4 47.7,47.7 0,26.3 -21.4,47.7 -47.7,47.7 -26.3,0 -47.7,-21.4 -47.7,-47.7 z m 106.7,364.7 c -11.3,0 -20.6,-9.2 -20.6,-20.6 0,-11.3 9.2,-20.6 20.6,-20.6 11.3,0 20.6,9.2 20.6,20.6 0,11.4 -9.2,20.6 -20.6,20.6 z M 235.4,295.5 c -15.8,0 -28.6,-12.8 -28.6,-28.6 0,-15.8 12.8,-28.6 28.6,-28.6 15.8,0 28.6,12.8 28.6,28.6 0,15.8 -12.8,28.6 -28.6,28.6 z m 206.9,146.6 c 0,20.8 -16.9,37.7 -37.7,37.7 -20.8,0 -37.7,-16.9 -37.7,-37.7 0,-20.8 16.9,-37.7 37.7,-37.7 20.8,0 37.7,16.9 37.7,37.7 z m 9.8,-324.7 c 15.3,0 27.7,12.4 27.7,27.7 0,15.3 -12.4,27.7 -27.7,27.7 -15.3,0 -27.7,-12.4 -27.7,-27.7 0,-15.3 12.4,-27.7 27.7,-27.7 z"
     id="path3723"
     inkscape:connector-curvature="0" /></svg>